<svg width="27" height="27" viewBox="0 0 27 27" fill="none" xmlns="http://www.w3.org/2000/svg">
<g clip-path="url(#clip0_1470_7)">
<path d="M8.95632 25.9997C10.2115 25.9997 11.2291 24.9821 11.2291 23.727C11.2291 22.4718 10.2115 21.4542 8.95632 21.4542C7.70113 21.4542 6.68359 22.4718 6.68359 23.727C6.68359 24.9821 7.70113 25.9997 8.95632 25.9997Z" stroke="#131F25" stroke-width="2" stroke-linecap="round" stroke-linejoin="round"/>
<path d="M22.5891 25.9997C23.8443 25.9997 24.8619 24.9821 24.8619 23.727C24.8619 22.4718 23.8443 21.4542 22.5891 21.4542C21.3339 21.4542 20.3164 22.4718 20.3164 23.727C20.3164 24.9821 21.3339 25.9997 22.5891 25.9997Z" stroke="#131F25" stroke-width="2" stroke-linecap="round" stroke-linejoin="round"/>
<path d="M6.30682 6.6817H26L24.0909 16.2158C23.987 16.739 23.7024 17.2089 23.2869 17.5434C22.8714 17.8779 22.3515 18.0556 21.8182 18.0454H9.80683C9.25192 18.0501 8.71447 17.8516 8.29581 17.4873C7.87715 17.1231 7.60622 16.6183 7.5341 16.0681L5.80682 2.97715C5.73519 2.43083 5.46753 1.92913 5.05364 1.56541C4.63975 1.20169 4.10782 1.00071 3.55682 0.999878H1" stroke="#131F25" stroke-width="2" stroke-linecap="round" stroke-linejoin="round"/>
</g>
<defs>
<clipPath id="clip0_1470_7">
<rect width="27" height="27" fill="white"/>
</clipPath>
</defs>
</svg>
