<svg width="26" height="25" viewBox="0 0 26 25" fill="none" xmlns="http://www.w3.org/2000/svg">
<g clip-path="url(#clip0_1470_11)">
<path d="M12.5368 25C19.4485 25 25.0735 19.3915 25.0735 12.5C25.0735 5.6085 19.4485 0 12.5368 0C5.625 0 0 5.6085 0 12.5C0 19.3915 5.625 25 12.5368 25ZM12.5368 1.75953C18.4559 1.75953 23.3088 6.56158 23.3088 12.5C23.3088 18.4384 18.4559 23.2404 12.5368 23.2404C6.61765 23.2404 1.76471 18.4017 1.76471 12.5C1.76471 6.59824 6.61765 1.75953 12.5368 1.75953Z" fill="#131F25"/>
<path d="M10.4419 17.9984C9.96398 17.9984 9.55957 18.4017 9.55957 18.8782C9.55957 19.3547 9.96398 19.758 10.4419 19.758H16.2507C16.7287 19.758 17.1331 19.3547 17.1331 18.8782C17.1331 18.4017 16.7287 17.9984 16.2507 17.9984H14.2287V10.2272C14.2287 9.75064 13.8243 9.34741 13.3463 9.34741H10.4419C9.96398 9.34741 9.55957 9.75064 9.55957 10.2272C9.55957 10.7037 9.96398 11.1069 10.4419 11.1069H12.464V17.9984H10.4419Z" fill="#131F25"/>
<path d="M12.1311 7.88109C12.923 7.88109 13.5649 7.24103 13.5649 6.45147C13.5649 5.66191 12.923 5.02185 12.1311 5.02185C11.3392 5.02185 10.6973 5.66191 10.6973 6.45147C10.6973 7.24103 11.3392 7.88109 12.1311 7.88109Z" fill="#131F25"/>
</g>
<defs>
<clipPath id="clip0_1470_11">
<rect width="26" height="25" fill="white"/>
</clipPath>
</defs>
</svg>
