<svg width="45" height="45" viewBox="0 0 45 45" fill="none" xmlns="http://www.w3.org/2000/svg">
<path d="M22.875 11.0195C29.0273 11.0195 34.1055 16.0977 34.1055 22.25C34.1055 28.5 29.0273 33.4805 22.875 33.4805C16.625 33.4805 11.6445 28.5 11.6445 22.25C11.6445 16.0977 16.625 11.0195 22.875 11.0195ZM22.875 29.5742C26.8789 29.5742 30.1016 26.3516 30.1016 22.25C30.1016 18.2461 26.8789 15.0234 22.875 15.0234C18.7734 15.0234 15.5508 18.2461 15.5508 22.25C15.5508 26.3516 18.8711 29.5742 22.875 29.5742ZM37.1328 10.6289C37.1328 12.0938 35.9609 13.2656 34.4961 13.2656C33.0312 13.2656 31.8594 12.0938 31.8594 10.6289C31.8594 9.16406 33.0312 7.99219 34.4961 7.99219C35.9609 7.99219 37.1328 9.16406 37.1328 10.6289ZM44.5547 13.2656C44.75 16.8789 44.75 27.7188 44.5547 31.332C44.3594 34.8477 43.5781 37.875 41.0391 40.5117C38.5 43.0508 35.375 43.832 31.8594 44.0273C28.2461 44.2227 17.4062 44.2227 13.793 44.0273C10.2773 43.832 7.25 43.0508 4.61328 40.5117C2.07422 37.875 1.29297 34.8477 1.09766 31.332C0.902344 27.7188 0.902344 16.8789 1.09766 13.2656C1.29297 9.75 2.07422 6.625 4.61328 4.08594C7.25 1.54688 10.2773 0.765625 13.793 0.570312C17.4062 0.375 28.2461 0.375 31.8594 0.570312C35.375 0.765625 38.5 1.54688 41.0391 4.08594C43.5781 6.625 44.3594 9.75 44.5547 13.2656ZM39.8672 35.1406C41.0391 32.3086 40.7461 25.4727 40.7461 22.25C40.7461 19.125 41.0391 12.2891 39.8672 9.35938C39.0859 7.50391 37.6211 5.94141 35.7656 5.25781C32.8359 4.08594 26 4.37891 22.875 4.37891C19.6523 4.37891 12.8164 4.08594 9.98438 5.25781C8.03125 6.03906 6.56641 7.50391 5.78516 9.35938C4.61328 12.2891 4.90625 19.125 4.90625 22.25C4.90625 25.4727 4.61328 32.3086 5.78516 35.1406C6.56641 37.0938 8.03125 38.5586 9.98438 39.3398C12.8164 40.5117 19.6523 40.2188 22.875 40.2188C26 40.2188 32.8359 40.5117 35.7656 39.3398C37.6211 38.5586 39.1836 37.0938 39.8672 35.1406Z" fill="white"/>
</svg>
