<svg width="25" height="25" viewBox="0 0 25 25" fill="none" xmlns="http://www.w3.org/2000/svg">
<path d="M2.34375 3.25H22.6562C23.9258 3.25 25 4.32422 25 5.59375C25 6.375 24.6094 7.05859 24.0234 7.49805L13.4277 15.457C12.8418 15.8965 12.1094 15.8965 11.5234 15.457L0.927734 7.49805C0.341797 7.05859 0 6.375 0 5.59375C0 4.32422 1.02539 3.25 2.34375 3.25ZM0 8.71875L10.5957 16.7266C11.7188 17.5566 13.2324 17.5566 14.3555 16.7266L25 8.71875V18.875C25 20.6328 23.584 22 21.875 22H3.125C1.36719 22 0 20.6328 0 18.875V8.71875Z" fill="black"/>
</svg>
