<svg width="37" height="25" viewBox="0 0 37 25" fill="none" xmlns="http://www.w3.org/2000/svg">
<g clip-path="url(#clip0_1470_3)">
<path d="M10.832 4.40027H1.1362C0.508591 4.40027 0 4.90899 0 5.5366C0 6.16428 0.508662 6.67293 1.1362 6.67293H10.832C11.4596 6.67293 11.9682 6.16421 11.9682 5.5366C11.9683 4.90899 11.4596 4.40027 10.832 4.40027Z" fill="#131F25"/>
<path d="M27.2306 15.909C24.7245 15.909 22.6857 17.9481 22.6857 20.4545C22.6857 22.9609 24.7245 25 27.2306 25C29.7372 25 31.7755 22.9609 31.7755 20.4545C31.7755 17.9481 29.7367 15.909 27.2306 15.909ZM27.2306 22.7272C25.9774 22.7272 24.9581 21.7079 24.9581 20.4545C24.9581 19.2011 25.9774 18.1818 27.2306 18.1818C28.4838 18.1818 29.5031 19.2011 29.5031 20.4545C29.5031 21.708 28.4838 22.7272 27.2306 22.7272ZM11.7022 15.909C9.19603 15.909 7.15723 17.9481 7.15723 20.4545C7.15723 22.9609 9.19603 25 11.7022 25C14.2083 25 16.2471 22.9609 16.2471 20.4545C16.2471 17.9481 14.2083 15.909 11.7022 15.909ZM11.7022 22.7272C10.4489 22.7272 9.42969 21.7079 9.42969 20.4545C9.42969 19.2011 10.4489 18.1818 11.7022 18.1818C12.955 18.1818 13.9746 19.2011 13.9746 20.4545C13.9746 21.708 12.9554 22.7272 11.7022 22.7272ZM30.2912 2.89848C30.1965 2.71035 30.0515 2.55221 29.8722 2.44172C29.6929 2.33122 29.4864 2.27271 29.2758 2.27271H23.2917V4.54544H28.5751L31.6691 10.7L33.6999 9.67872L30.2912 2.89848Z" fill="#131F25"/>
<path d="M15.2255 19.3561H23.823V21.6288H15.2255V19.3561ZM8.29444 19.3561H4.35556C3.72796 19.3561 3.21937 19.8648 3.21937 20.4924C3.21937 21.1201 3.72803 21.6287 4.35556 21.6287H8.29451C8.92211 21.6287 9.4307 21.12 9.4307 20.4924C9.4307 19.8647 8.92204 19.3561 8.29444 19.3561ZM35.8177 12.409L33.5828 9.53028C33.4767 9.39341 33.3407 9.28266 33.1851 9.20649C33.0296 9.13032 32.8587 9.09077 32.6856 9.09086H24.4289V1.13633C24.4289 0.508651 23.9203 0 23.2927 0H4.35556C3.72796 0 3.21937 0.508722 3.21937 1.13633C3.21937 1.76394 3.72803 2.27266 4.35556 2.27266H22.1565V10.2272C22.1565 10.8549 22.6651 11.3635 23.2927 11.3635H32.1292L33.7839 13.4953V19.3559H30.6403C30.0127 19.3559 29.5041 19.8646 29.5041 20.4923C29.5041 21.1199 30.0127 21.6286 30.6403 21.6286H34.9201C35.5477 21.6286 36.0563 21.1199 36.0563 20.4923V13.106C36.0563 12.8538 35.9723 12.6083 35.8177 12.409ZM8.21873 13.5985H2.99204C2.36444 13.5985 1.85584 14.1072 1.85584 14.7348C1.85584 15.3625 2.36451 15.8711 2.99204 15.8711H8.21866C8.84627 15.8711 9.35486 15.3624 9.35486 14.7348C9.35493 14.1072 8.84627 13.5985 8.21873 13.5985ZM10.832 9.12875H1.1362C0.508662 9.12875 0 9.63747 0 10.2651C0 10.8928 0.508662 11.4015 1.1362 11.4015H10.832C11.4596 11.4015 11.9682 10.8927 11.9682 10.2651C11.9682 9.63754 11.4596 9.12875 10.832 9.12875Z" fill="#131F25"/>
</g>
<defs>
<clipPath id="clip0_1470_3">
<rect width="37" height="25" fill="white"/>
</clipPath>
</defs>
</svg>
