<svg width="54" height="38" viewBox="0 0 54 38" fill="none" xmlns="http://www.w3.org/2000/svg">
<path d="M52.6133 6.45703C53.7852 10.5586 53.7852 19.3477 53.7852 19.3477C53.7852 19.3477 53.7852 28.0391 52.6133 32.2383C52.0273 34.582 50.1719 36.3398 47.9258 36.9258C43.7266 38 27.125 38 27.125 38C27.125 38 10.4258 38 6.22656 36.9258C3.98047 36.3398 2.125 34.582 1.53906 32.2383C0.367188 28.0391 0.367188 19.3477 0.367188 19.3477C0.367188 19.3477 0.367188 10.5586 1.53906 6.45703C2.125 4.11328 3.98047 2.25781 6.22656 1.67188C10.4258 0.5 27.125 0.5 27.125 0.5C27.125 0.5 43.7266 0.5 47.9258 1.67188C50.1719 2.25781 52.0273 4.11328 52.6133 6.45703ZM21.6562 27.2578L35.5234 19.3477L21.6562 11.4375V27.2578Z" fill="white"/>
</svg>
